<mxfile host="app.diagrams.net" modified="2020-10-06T10:21:00.457Z" agent="5.0 (Windows)" etag="UDDlnZwEfWxfhxaq4pvN" version="13.7.7" type="github">
  <diagram id="mP9wtIfBe_jxdlKhY_9U" name="Page-1">
    <mxGraphModel dx="910" dy="487" grid="1" gridSize="10" guides="1" tooltips="1" connect="1" arrows="1" fold="1" page="1" pageScale="1" pageWidth="1169" pageHeight="827" math="0" shadow="0">
      <root>
        <mxCell id="0" />
        <mxCell id="1" parent="0" />
        <mxCell id="AuAD-FIefWDgtdPpyPv2-1" value="Processing of Public Bills" style="swimlane;html=1;childLayout=stackLayout;resizeParent=1;resizeParentMax=0;horizontal=1;startSize=20;horizontalStack=0;" vertex="1" parent="1">
          <mxGeometry x="30" y="20" width="1130" height="740" as="geometry" />
        </mxCell>
        <mxCell id="AuAD-FIefWDgtdPpyPv2-2" value="Clerk" style="swimlane;html=1;startSize=20;horizontal=0;" vertex="1" parent="AuAD-FIefWDgtdPpyPv2-1">
          <mxGeometry y="20" width="1130" height="120" as="geometry" />
        </mxCell>
        <mxCell id="AuAD-FIefWDgtdPpyPv2-3" value="Legal Counsel" style="swimlane;html=1;startSize=20;horizontal=0;" vertex="1" parent="AuAD-FIefWDgtdPpyPv2-1">
          <mxGeometry y="140" width="1130" height="120" as="geometry" />
        </mxCell>
        <mxCell id="AuAD-FIefWDgtdPpyPv2-4" value="Speaker" style="swimlane;html=1;startSize=20;horizontal=0;" vertex="1" parent="AuAD-FIefWDgtdPpyPv2-1">
          <mxGeometry y="260" width="1130" height="120" as="geometry" />
        </mxCell>
        <mxCell id="AuAD-FIefWDgtdPpyPv2-9" value="Table Office" style="swimlane;html=1;startSize=20;horizontal=0;" vertex="1" parent="AuAD-FIefWDgtdPpyPv2-1">
          <mxGeometry y="380" width="1130" height="120" as="geometry" />
        </mxCell>
        <mxCell id="AuAD-FIefWDgtdPpyPv2-10" value="ICT" style="swimlane;html=1;startSize=20;horizontal=0;" vertex="1" parent="AuAD-FIefWDgtdPpyPv2-1">
          <mxGeometry y="500" width="1130" height="120" as="geometry" />
        </mxCell>
        <mxCell id="AuAD-FIefWDgtdPpyPv2-11" value="Clerk Assistant" style="swimlane;html=1;startSize=20;horizontal=0;" vertex="1" parent="AuAD-FIefWDgtdPpyPv2-1">
          <mxGeometry y="620" width="1130" height="120" as="geometry" />
        </mxCell>
      </root>
    </mxGraphModel>
  </diagram>
</mxfile>
